# xmcd
#
# Track frame offsets:
#	150
#	13377
#	24874
#	39286
#	54848
#	69204
#	82337
#	96326
#	113070
#	124338
#
# Disc length: 1854 seconds
#
# Revision: 0
# Processed by: cddbd v1.5.2PL0 Copyright (c) Steve Scherf et al.
# Submitted via: audiograbber 1.83.01
#
DISCID=7b073c0a
DTITLE=Don Williams - Expressions
DYEAR=1978
DGENRE=Country
TTITLE0=I Would Like to See You Again
TTITLE1=You've Got a Hold On Me
TTITLE2=Tears of the Lonely
TTITLE3=All I'm Missing Is You
TTITLE4=Tulsa Time
TTITLE5=Lay Down Beside Me
TTITLE6=Give It To Me
TTITLE7=Not A Chance
TTITLE8=It Must Be Love
TTITLE9=When I'm With You
EXTD=
EXTT0=
EXTT1=
EXTT2=
EXTT3=
EXTT4=
EXTT5=
EXTT6=
EXTT7=
EXTT8=
EXTT9=
PLAYORDER=
